<svg width="18" height="18" viewBox="0 0 18 18" fill="none" xmlns="http://www.w3.org/2000/svg">
<path d="M16.2317 8.23629H4.47749L11.5128 2.12915C11.6253 2.03071 11.557 1.8479 11.4083 1.8479H9.63039C9.55204 1.8479 9.47771 1.87603 9.41945 1.92625L1.82771 8.51353C1.75818 8.5738 1.70242 8.64831 1.6642 8.73202C1.62598 8.81572 1.6062 8.90666 1.6062 8.99868C1.6062 9.0907 1.62598 9.18164 1.6642 9.26535C1.70242 9.34905 1.75818 9.42357 1.82771 9.48384L9.46365 16.1113C9.49378 16.1374 9.52994 16.1515 9.56811 16.1515H11.4063C11.5549 16.1515 11.6232 15.9667 11.5107 15.8702L4.47749 9.76308H16.2317C16.3201 9.76308 16.3924 9.69076 16.3924 9.60237V8.39701C16.3924 8.30862 16.3201 8.23629 16.2317 8.23629Z" fill="black"/>
</svg>
