<svg width="18" height="18" viewBox="0 0 18 18" fill="none" xmlns="http://www.w3.org/2000/svg">
<path d="M16.172 8.51353L8.5823 1.92625C8.52404 1.87603 8.44971 1.8479 8.37136 1.8479H6.59346C6.4448 1.8479 6.3765 2.03272 6.489 2.12915L13.5243 8.23629H1.76801C1.67962 8.23629 1.6073 8.30862 1.6073 8.39701V9.60237C1.6073 9.69076 1.67962 9.76308 1.76801 9.76308H13.5223L6.48699 15.8702C6.37449 15.9687 6.44279 16.1515 6.59145 16.1515H8.42962C8.46779 16.1515 8.50596 16.1374 8.53409 16.1113L16.172 9.48585C16.2416 9.42537 16.2973 9.35068 16.3356 9.26681C16.3738 9.18294 16.3935 9.09185 16.3935 8.99969C16.3935 8.90752 16.3738 8.81643 16.3356 8.73256C16.2973 8.6487 16.2416 8.574 16.172 8.51353Z" fill="black"/>
</svg>
