<svg width="17" height="16" viewBox="0 0 17 16" fill="none" xmlns="http://www.w3.org/2000/svg">
<path d="M7.643 1.42969H2.21443C2.05728 1.42969 1.92871 1.55826 1.92871 1.7154V7.14397C1.92871 7.30112 2.05728 7.42969 2.21443 7.42969H7.643C7.80014 7.42969 7.92871 7.30112 7.92871 7.14397V1.7154C7.92871 1.55826 7.80014 1.42969 7.643 1.42969ZM6.71443 6.2154H3.143V2.64397H6.71443V6.2154ZM14.7859 1.42969H9.35728C9.20014 1.42969 9.07157 1.55826 9.07157 1.7154V7.14397C9.07157 7.30112 9.20014 7.42969 9.35728 7.42969H14.7859C14.943 7.42969 15.0716 7.30112 15.0716 7.14397V1.7154C15.0716 1.55826 14.943 1.42969 14.7859 1.42969ZM13.8573 6.2154H10.2859V2.64397H13.8573V6.2154ZM7.643 8.57255H2.21443C2.05728 8.57255 1.92871 8.70112 1.92871 8.85826V14.2868C1.92871 14.444 2.05728 14.5725 2.21443 14.5725H7.643C7.80014 14.5725 7.92871 14.444 7.92871 14.2868V8.85826C7.92871 8.70112 7.80014 8.57255 7.643 8.57255ZM6.71443 13.3583H3.143V9.78683H6.71443V13.3583ZM14.7859 8.57255H9.35728C9.20014 8.57255 9.07157 8.70112 9.07157 8.85826V14.2868C9.07157 14.444 9.20014 14.5725 9.35728 14.5725H14.7859C14.943 14.5725 15.0716 14.444 15.0716 14.2868V8.85826C15.0716 8.70112 14.943 8.57255 14.7859 8.57255ZM13.8573 13.3583H10.2859V9.78683H13.8573V13.3583Z" fill="black"/>
</svg>
