<svg width="65" height="64" viewBox="0 0 65 64" fill="none" xmlns="http://www.w3.org/2000/svg">
<path d="M32.5 4C17.0375 4 4.5 16.5375 4.5 32C4.5 47.4625 17.0375 60 32.5 60C47.9625 60 60.5 47.4625 60.5 32C60.5 16.5375 47.9625 4 32.5 4ZM44.5938 22.8563L31.4312 41.1063C31.2473 41.363 31.0048 41.5722 30.7238 41.7166C30.4428 41.8609 30.1315 41.9362 29.8156 41.9362C29.4998 41.9362 29.1884 41.8609 28.9075 41.7166C28.6265 41.5722 28.384 41.363 28.2 41.1063L20.4062 30.3062C20.1687 29.975 20.4062 29.5125 20.8125 29.5125H23.7437C24.3813 29.5125 24.9875 29.8188 25.3625 30.3438L29.8125 36.5187L39.6375 22.8937C40.0125 22.375 40.6125 22.0625 41.2562 22.0625H44.1875C44.5938 22.0625 44.8312 22.525 44.5938 22.8563Z" fill="#52C41A"/>
</svg>
