<svg width="17" height="16" viewBox="0 0 17 16" fill="none" xmlns="http://www.w3.org/2000/svg">
<path d="M13.2855 1.78729L13.2855 14.2123C13.2855 14.2926 13.3498 14.3569 13.4284 14.3569H14.4998C14.5784 14.3569 14.6426 14.2926 14.6426 14.2123L14.6426 1.78729C14.6426 1.70693 14.5784 1.64265 14.4998 1.64265H13.4284C13.3498 1.64265 13.2855 1.70693 13.2855 1.78729ZM11.3034 8.11229C11.3204 8.09893 11.3342 8.08185 11.3437 8.06236C11.3532 8.04287 11.3582 8.02147 11.3582 7.99979C11.3582 7.97811 11.3532 7.95671 11.3437 7.93722C11.3342 7.91773 11.3204 7.90065 11.3034 7.88729L8.77301 5.88729C8.68015 5.81408 8.54265 5.88015 8.54265 5.99979L8.54265 7.323L2.49979 7.323C2.42122 7.323 2.35693 7.38729 2.35693 7.46586L2.35693 8.53729C2.35693 8.61586 2.42122 8.68015 2.49979 8.68015H8.54086V9.99979C8.54086 10.1194 8.67836 10.1855 8.77122 10.1123L11.3034 8.11229Z" fill="black"/>
</svg>
