<svg width="14" height="14" viewBox="0 0 14 14" fill="none" xmlns="http://www.w3.org/2000/svg">
<path d="M7.00134 1.91016C10.0029 1.91016 12.2427 3.48037 13.724 6.60059C13.8442 6.85826 13.8441 7.15224 13.724 7.40527C12.2427 10.5271 10.0045 12.0977 7.00134 12.0977C4 12.0975 1.76084 10.5274 0.279663 7.40723C0.220273 7.28145 0.189827 7.14398 0.189819 7.00488C0.189819 6.8658 0.220293 6.72831 0.279663 6.60254C1.76084 3.48082 3.99844 1.91031 7.00134 1.91016ZM7.00134 3.03516C4.48126 3.03531 2.63584 4.31345 1.33435 7.00391C2.63584 9.69437 4.48126 10.9725 7.00134 10.9727C9.52322 10.9727 11.3693 9.69453 12.6693 7.00391C11.3677 4.31328 9.52166 3.03516 7.00134 3.03516ZM6.93884 4.25391C8.45755 4.25391 9.68877 5.48522 9.68884 7.00391C9.68884 8.52266 8.45759 9.75391 6.93884 9.75391C5.4203 9.75367 4.18884 8.52251 4.18884 7.00391C4.18892 5.48537 5.42034 4.25415 6.93884 4.25391ZM6.93884 5.25391C5.97191 5.25414 5.18892 6.03693 5.18884 7.00391C5.18884 7.97095 5.97186 8.75367 6.93884 8.75391C7.90603 8.75391 8.68884 7.97109 8.68884 7.00391C8.68877 6.03678 7.90598 5.25391 6.93884 5.25391Z" fill="black"/>
</svg>
