<svg width="16" height="16" viewBox="0 0 16 16" fill="none" xmlns="http://www.w3.org/2000/svg">
<path d="M15.3397 3.91809C15.1003 3.36387 14.7552 2.86164 14.3236 2.43952C13.8917 2.01614 13.3825 1.67968 12.8236 1.44845C12.2441 1.20772 11.6226 1.08451 10.995 1.08595C10.1147 1.08595 9.25576 1.32702 8.50933 1.78238C8.33076 1.89131 8.16112 2.01095 8.0004 2.14131C7.83969 2.01095 7.67005 1.89131 7.49148 1.78238C6.74505 1.32702 5.88612 1.08595 5.00576 1.08595C4.37183 1.08595 3.75755 1.20738 3.17719 1.44845C2.61647 1.68059 2.11112 2.01452 1.67719 2.43952C1.24504 2.86117 0.899828 3.36352 0.661118 3.91809C0.412903 4.49488 0.286118 5.10738 0.286118 5.73774C0.286118 6.33238 0.407546 6.95202 0.648618 7.58238C0.850403 8.10917 1.13969 8.65559 1.50933 9.20738C2.09505 10.0806 2.9004 10.9913 3.9004 11.9145C5.55755 13.4449 7.19862 14.502 7.26826 14.5449L7.69148 14.8163C7.87898 14.936 8.12005 14.936 8.30755 14.8163L8.73076 14.5449C8.8004 14.5002 10.4397 13.4449 12.0986 11.9145C13.0986 10.9913 13.904 10.0806 14.4897 9.20738C14.8593 8.65559 15.1504 8.10917 15.3504 7.58238C15.5915 6.95202 15.7129 6.33238 15.7129 5.73774C15.7147 5.10738 15.5879 4.49488 15.3397 3.91809ZM8.0004 13.4038C8.0004 13.4038 1.64326 9.33059 1.64326 5.73774C1.64326 3.91809 3.14862 2.44309 5.00576 2.44309C6.31112 2.44309 7.44326 3.17166 8.0004 4.23595C8.55755 3.17166 9.68969 2.44309 10.995 2.44309C12.8522 2.44309 14.3575 3.91809 14.3575 5.73774C14.3575 9.33059 8.0004 13.4038 8.0004 13.4038Z" fill="black"/>
</svg>
