<svg width="17" height="16" viewBox="0 0 17 16" fill="none" xmlns="http://www.w3.org/2000/svg">
<g clip-path="url(#clip0_4671_2988)">
<path d="M16.2599 7.87393L9.35986 0.9775L8.89736 0.515C8.79198 0.410316 8.64947 0.351563 8.50093 0.351562C8.3524 0.351562 8.20989 0.410316 8.10451 0.515L0.742008 7.87393C0.634028 7.98149 0.548689 8.10959 0.491029 8.25067C0.43337 8.39175 0.404558 8.54296 0.406293 8.69536C0.413436 9.32393 0.936651 9.82571 1.56522 9.82571H2.32415V15.6418H14.6777V9.82571H15.4527C15.7581 9.82571 16.0456 9.70607 16.2616 9.49C16.368 9.38395 16.4523 9.25785 16.5097 9.11899C16.567 8.98014 16.5962 8.83129 16.5956 8.68107C16.5956 8.3775 16.4759 8.09 16.2599 7.87393ZM9.50093 14.3561H7.50094V10.7132H9.50093V14.3561ZM13.392 8.54V14.3561H10.6438V10.2846C10.6438 9.89 10.3241 9.57036 9.92951 9.57036H7.07236C6.67772 9.57036 6.35808 9.89 6.35808 10.2846V14.3561H3.60986V8.54H1.89558L8.50272 1.93821L8.91522 2.35071L15.1081 8.54H13.392Z" fill="black"/>
</g>
<defs>
<clipPath id="clip0_4671_2988">
<rect width="16" height="16" fill="white" transform="translate(0.5)"/>
</clipPath>
</defs>
</svg>
