<svg width="18" height="18" viewBox="0 0 18 18" fill="none" xmlns="http://www.w3.org/2000/svg">
<path d="M17.3571 1.92493H0.642857C0.287277 1.92493 0 2.2122 0 2.56778V15.4249C0 15.7805 0.287277 16.0678 0.642857 16.0678H17.3571C17.7127 16.0678 18 15.7805 18 15.4249V2.56778C18 2.2122 17.7127 1.92493 17.3571 1.92493ZM16.5536 4.15082V14.6214H1.44643V4.15082L0.891964 3.7189L1.68147 2.70439L2.54129 3.37336H15.4607L16.3205 2.70439L17.11 3.7189L16.5536 4.15082ZM15.4607 3.37136L9 8.39368L2.53929 3.37136L1.67946 2.70238L0.889955 3.71689L1.44442 4.14881L8.30692 9.48453C8.50428 9.63785 8.74707 9.72108 8.99699 9.72108C9.2469 9.72108 9.4897 9.63785 9.68705 9.48453L16.5536 4.15082L17.108 3.7189L16.3185 2.70439L15.4607 3.37136Z" fill="black"/>
</svg>
