<svg width="18" height="18" viewBox="0 0 18 18" fill="none" xmlns="http://www.w3.org/2000/svg">
<g clip-path="url(#clip0_8088_4688)">
<path d="M16.3349 3.51205L14.1954 1.37455C13.9342 1.11339 13.5847 0.966736 13.215 0.966736C12.8454 0.966736 12.4959 1.11138 12.2347 1.37455L9.93045 3.67477C9.66929 3.93593 9.52264 4.2875 9.52264 4.65714C9.52264 5.02879 9.66728 5.37633 9.93045 5.6395L11.7304 7.44151C11.3204 8.39693 10.7312 9.26501 9.99473 9.99888C9.25746 10.7402 8.39563 11.3248 7.43938 11.7386L5.63938 9.9366C5.37822 9.67544 5.02866 9.52879 4.65902 9.52879C4.4767 9.52812 4.29607 9.56384 4.12773 9.63387C3.95939 9.70389 3.80672 9.80682 3.67866 9.9366L1.37241 12.2368C1.11125 12.498 0.9646 12.8496 0.9646 13.2192C0.9646 13.5908 1.10924 13.9384 1.37241 14.2016L3.50991 16.3391C3.95589 16.785 4.57063 17.0402 5.20143 17.0402C5.33201 17.0402 5.45857 17.0301 5.58714 17.008C8.24697 16.5701 10.8867 15.1538 13.0182 13.0243C15.1476 10.8908 16.5619 8.25111 17.0039 5.58928C17.1304 4.83392 16.8773 4.05647 16.3349 3.51205ZM15.5796 5.35022C15.1878 7.71875 13.9142 10.0812 11.9956 11.9998C10.0771 13.9183 7.71661 15.192 5.34808 15.5837C5.05076 15.6339 4.7454 15.5335 4.52844 15.3185L2.42911 13.2192L4.655 10.9913L7.0617 13.402L7.07978 13.4201L7.51371 13.2594C8.82941 12.7756 10.0242 12.0116 11.0153 11.0202C12.0063 10.0288 12.7699 8.83373 13.2532 7.51785L13.4139 7.08392L10.9871 4.65915L13.213 2.43124L15.3124 4.53058C15.5293 4.74754 15.6298 5.0529 15.5796 5.35022Z" fill="black"/>
</g>
<defs>
<clipPath id="clip0_8088_4688">
<rect width="18" height="18" fill="white"/>
</clipPath>
</defs>
</svg>
