<svg width="15" height="15" viewBox="0 0 15 15" fill="none" xmlns="http://www.w3.org/2000/svg">
<path d="M7.96838 1.87646C8.05172 1.87646 8.09338 1.91813 8.09338 2.00146V6.90771H12.7506C12.8337 6.90784 12.8756 6.9495 12.8756 7.03271V7.97021C12.8756 8.05338 12.8337 8.09509 12.7506 8.09521H8.09338V13.0015C8.09336 13.0847 8.05169 13.1265 7.96838 13.1265H7.03088C6.94774 13.1264 6.90591 13.0847 6.90588 13.0015V8.09521H2.25061C2.1673 8.09521 2.12564 8.0535 2.12561 7.97021V7.03271C2.12561 6.94938 2.16728 6.90771 2.25061 6.90771H6.90588V2.00146C6.90588 1.91821 6.94771 1.87655 7.03088 1.87646H7.96838Z" fill="black" fill-opacity="0.85"/>
</svg>
