<svg width="16" height="16" viewBox="0 0 16 16" fill="none" xmlns="http://www.w3.org/2000/svg">
<path d="M1.28551 5.71205H2.28551C2.36408 5.71205 2.42836 5.64777 2.42836 5.5692V2.42634H5.57122C5.64979 2.42634 5.71408 2.36205 5.71408 2.28348V1.28348C5.71408 1.20491 5.64979 1.14062 5.57122 1.14062H2.35693C1.68551 1.14062 1.14265 1.68348 1.14265 2.35491V5.5692C1.14265 5.64777 1.20693 5.71205 1.28551 5.71205ZM10.4284 2.42634H13.5712V5.5692C13.5712 5.64777 13.6355 5.71205 13.7141 5.71205H14.7141C14.7927 5.71205 14.8569 5.64777 14.8569 5.5692V2.35491C14.8569 1.68348 14.3141 1.14062 13.6426 1.14062H10.4284C10.3498 1.14062 10.2855 1.20491 10.2855 1.28348V2.28348C10.2855 2.36205 10.3498 2.42634 10.4284 2.42634ZM5.57122 13.5692H2.42836V10.4263C2.42836 10.3478 2.36408 10.2835 2.28551 10.2835H1.28551C1.20693 10.2835 1.14265 10.3478 1.14265 10.4263V13.6406C1.14265 14.3121 1.68551 14.8549 2.35693 14.8549H5.57122C5.64979 14.8549 5.71408 14.7906 5.71408 14.7121V13.7121C5.71408 13.6335 5.64979 13.5692 5.57122 13.5692ZM14.7141 10.2835H13.7141C13.6355 10.2835 13.5712 10.3478 13.5712 10.4263V13.5692H10.4284C10.3498 13.5692 10.2855 13.6335 10.2855 13.7121V14.7121C10.2855 14.7906 10.3498 14.8549 10.4284 14.8549H13.6426C14.3141 14.8549 14.8569 14.3121 14.8569 13.6406V10.4263C14.8569 10.3478 14.7927 10.2835 14.7141 10.2835ZM14.9998 7.35491H0.999791C0.921219 7.35491 0.856934 7.4192 0.856934 7.49777V8.49777C0.856934 8.57634 0.921219 8.64063 0.999791 8.64063H14.9998C15.0784 8.64063 15.1426 8.57634 15.1426 8.49777V7.49777C15.1426 7.4192 15.0784 7.35491 14.9998 7.35491Z" fill="black" fill-opacity="0.85"/>
</svg>
