<svg width="16" height="16" viewBox="0 0 16 16" fill="none" xmlns="http://www.w3.org/2000/svg">
<path d="M14.4211 10.9672H5.11639L5.58358 10.0156L13.3461 10.0016C13.6086 10.0016 13.8336 9.81406 13.8805 9.55469L14.9555 3.5375C14.9836 3.37969 14.9414 3.21719 14.8383 3.09375C14.7873 3.033 14.7237 2.98407 14.652 2.95034C14.5802 2.91661 14.5019 2.8989 14.4226 2.89844L4.54764 2.86562L4.46327 2.46875C4.41014 2.21562 4.18202 2.03125 3.92264 2.03125H1.50858C1.3623 2.03125 1.222 2.08936 1.11856 2.1928C1.01513 2.29624 0.957016 2.43653 0.957016 2.58281C0.957016 2.7291 1.01513 2.86939 1.11856 2.97283C1.222 3.07626 1.3623 3.13437 1.50858 3.13437H3.47577L3.84452 4.8875L4.75233 9.28281L3.58358 11.1906C3.52288 11.2725 3.48633 11.3698 3.47804 11.4714C3.46976 11.573 3.49008 11.675 3.5367 11.7656C3.63045 11.9516 3.81952 12.0687 4.02889 12.0687H5.01014C4.80095 12.3466 4.68796 12.685 4.68827 13.0328C4.68827 13.9172 5.40702 14.6359 6.29139 14.6359C7.17577 14.6359 7.89452 13.9172 7.89452 13.0328C7.89452 12.6844 7.77889 12.3453 7.57264 12.0687H10.0898C9.88064 12.3466 9.76765 12.685 9.76795 13.0328C9.76795 13.9172 10.4867 14.6359 11.3711 14.6359C12.2555 14.6359 12.9742 13.9172 12.9742 13.0328C12.9742 12.6844 12.8586 12.3453 12.6523 12.0687H14.4226C14.7258 12.0687 14.9742 11.8219 14.9742 11.5172C14.9733 11.3711 14.9146 11.2312 14.811 11.1282C14.7074 11.0251 14.5672 10.9673 14.4211 10.9672ZM4.77733 3.95312L13.7742 3.98281L12.893 8.91719L5.82577 8.92969L4.77733 3.95312ZM6.29139 13.5266C6.01952 13.5266 5.79764 13.3047 5.79764 13.0328C5.79764 12.7609 6.01952 12.5391 6.29139 12.5391C6.56327 12.5391 6.78514 12.7609 6.78514 13.0328C6.78514 13.1638 6.73312 13.2893 6.64052 13.3819C6.54793 13.4745 6.42234 13.5266 6.29139 13.5266ZM11.3711 13.5266C11.0992 13.5266 10.8773 13.3047 10.8773 13.0328C10.8773 12.7609 11.0992 12.5391 11.3711 12.5391C11.643 12.5391 11.8648 12.7609 11.8648 13.0328C11.8648 13.1638 11.8128 13.2893 11.7202 13.3819C11.6276 13.4745 11.502 13.5266 11.3711 13.5266Z" fill="black"/>
</svg>
