<svg width="18" height="19" viewBox="0 0 18 19" fill="none" xmlns="http://www.w3.org/2000/svg">
<path d="M15.9628 6.70718L11.4997 6.05855L9.50462 2.01382C9.45013 1.90308 9.36048 1.81343 9.24974 1.75894C8.97201 1.62183 8.63451 1.73609 8.49564 2.01382L6.50052 6.05855L2.03744 6.70718C1.91439 6.72476 1.80189 6.78277 1.71576 6.87066C1.61163 6.97769 1.55425 7.12168 1.55622 7.27099C1.5582 7.4203 1.61938 7.56272 1.7263 7.66695L4.95541 10.8152L4.19251 15.2607C4.17462 15.3641 4.18607 15.4705 4.22555 15.5677C4.26503 15.6649 4.33096 15.7492 4.41588 15.8109C4.50079 15.8725 4.60129 15.9092 4.70597 15.9166C4.81065 15.9241 4.91533 15.9021 5.00814 15.8531L9.00013 13.7543L12.9921 15.8531C13.1011 15.9111 13.2277 15.9304 13.349 15.9093C13.6548 15.8566 13.8605 15.5666 13.8077 15.2607L13.0449 10.8152L16.274 7.66695C16.3619 7.58082 16.4199 7.46832 16.4374 7.34527C16.4849 7.03765 16.2704 6.75289 15.9628 6.70718Z" fill="#FADB14"/>
</svg>
