<svg width="32" height="32" viewBox="0 0 32 32" fill="none" xmlns="http://www.w3.org/2000/svg">
<rect width="32" height="32" rx="16" fill="#BFBFBF"/>
<path d="M22.187 20.4907C21.8502 19.6928 21.3613 18.9681 20.7477 18.3568C20.136 17.7438 19.4114 17.255 18.6138 16.9175C18.6067 16.914 18.5995 16.9122 18.5924 16.9086C19.7049 16.105 20.4281 14.7961 20.4281 13.3193C20.4281 10.8729 18.4459 8.89075 15.9995 8.89075C13.5531 8.89075 11.5709 10.8729 11.5709 13.3193C11.5709 14.7961 12.2942 16.105 13.4067 16.9104C13.3995 16.914 13.3924 16.9157 13.3852 16.9193C12.5852 17.2568 11.8674 17.7407 11.2513 18.3586C10.6383 18.9703 10.1495 19.695 9.81202 20.4925C9.48045 21.2733 9.30163 22.1105 9.28523 22.9586C9.28475 22.9777 9.2881 22.9966 9.29506 23.0144C9.30203 23.0321 9.31248 23.0483 9.32579 23.0619C9.3391 23.0756 9.35501 23.0864 9.37258 23.0938C9.39015 23.1012 9.40902 23.105 9.42809 23.105H10.4995L10.8889 23.1112H12.2223L15.9995 23.105L19.5556 23.1112H21.3334L21.4995 23.105H22.5709C22.59 23.105 22.6089 23.1012 22.6265 23.0938C22.644 23.0864 22.6599 23.0756 22.6732 23.0619C22.6866 23.0483 22.697 23.0321 22.704 23.0144C22.7109 22.9966 22.7143 22.9777 22.7138 22.9586C22.6959 22.105 22.5192 21.2747 22.187 20.4907Z" fill="white"/>
</svg>
