<svg width="16" height="16" viewBox="0 0 16 16" fill="none" xmlns="http://www.w3.org/2000/svg">
<path d="M2.014 11.5H1.5C1.36739 11.5 1.24021 11.4473 1.14645 11.3536C1.05268 11.2598 1 11.1326 1 11V3.5C1 3.36739 1.05268 3.24021 1.14645 3.14645C1.24021 3.05268 1.36739 3 1.5 3H10.5C10.6326 3 10.7598 3.05268 10.8536 3.14645C10.9473 3.24021 11 3.36739 11 3.5V5H13.571C13.6904 5.00005 13.8059 5.04282 13.8965 5.12059C13.9871 5.19836 14.0468 5.30598 14.065 5.424L14.911 10.924C14.922 10.9952 14.9174 11.068 14.8976 11.1373C14.8778 11.2066 14.8433 11.2708 14.7963 11.3255C14.7494 11.3802 14.6912 11.4241 14.6258 11.4542C14.5603 11.4844 14.4891 11.5 14.417 11.5H12.987C13.0216 11.8143 12.9895 12.1324 12.8929 12.4336C12.7963 12.7347 12.6373 13.012 12.4262 13.2476C12.2152 13.4831 11.9569 13.6715 11.6682 13.8005C11.3794 13.9294 11.0667 13.9961 10.7505 13.9961C10.4343 13.9961 10.1216 13.9294 9.83284 13.8005C9.5441 13.6715 9.28579 13.4831 9.07475 13.2476C8.86372 13.012 8.70471 12.7347 8.60809 12.4336C8.51147 12.1324 8.47941 11.8143 8.514 11.5H6.486C6.52059 11.8143 6.48853 12.1324 6.39191 12.4336C6.29529 12.7347 6.13627 13.012 5.92524 13.2476C5.71421 13.4831 5.4559 13.6715 5.16716 13.8005C4.87842 13.9294 4.56574 13.9961 4.2495 13.9961C3.93326 13.9961 3.62058 13.9294 3.33184 13.8005C3.0431 13.6715 2.78479 13.4831 2.57376 13.2476C2.36273 13.012 2.20371 12.7347 2.10709 12.4336C2.01047 12.1324 1.97841 11.8143 2.013 11.5H2.014ZM2.379 10.5C2.58424 10.1918 2.86242 9.93915 3.18883 9.76437C3.51523 9.58959 3.87975 9.49814 4.25 9.49814C4.62025 9.49814 4.98477 9.58959 5.31117 9.76437C5.63758 9.93915 5.91576 10.1918 6.121 10.5H8.88C9.147 10.1 9.54 9.791 10.001 9.628V4H2V10.5H2.379ZM12.621 10.5H13.834L13.527 8.5H11V9.514C11.3257 9.55038 11.6395 9.65747 11.9195 9.82778C12.1995 9.99809 12.4389 10.2275 12.621 10.5ZM13.373 7.5L13.143 6H11V7.5H13.373ZM10.75 13C11.0815 13 11.3995 12.8683 11.6339 12.6339C11.8683 12.3995 12 12.0815 12 11.75C12 11.4185 11.8683 11.1005 11.6339 10.8661C11.3995 10.6317 11.0815 10.5 10.75 10.5C10.4185 10.5 10.1005 10.6317 9.86612 10.8661C9.6317 11.1005 9.5 11.4185 9.5 11.75C9.5 12.0815 9.6317 12.3995 9.86612 12.6339C10.1005 12.8683 10.4185 13 10.75 13ZM4.25 13C4.58152 13 4.89946 12.8683 5.13388 12.6339C5.3683 12.3995 5.5 12.0815 5.5 11.75C5.5 11.4185 5.3683 11.1005 5.13388 10.8661C4.89946 10.6317 4.58152 10.5 4.25 10.5C3.91848 10.5 3.60054 10.6317 3.36612 10.8661C3.1317 11.1005 3 11.4185 3 11.75C3 12.0815 3.1317 12.3995 3.36612 12.6339C3.60054 12.8683 3.91848 13 4.25 13Z" fill="#8C8C8C"/>
</svg>
